<svg width="16" height="17" viewBox="0 0 16 17" fill="none" xmlns="http://www.w3.org/2000/svg">
<path fill-rule="evenodd" clip-rule="evenodd" d="M3.3007 2C3.31111 2 3.32155 2 3.33203 2L12.6967 2C13.1413 1.99998 13.5214 1.99996 13.8252 2.03828C14.1474 2.07892 14.4588 2.1702 14.7146 2.41016C14.9749 2.65436 15.0783 2.95904 15.1237 3.27603C15.1654 3.56723 15.1654 3.92931 15.1654 4.34239L15.1654 4.86008C15.1654 5.18575 15.1654 5.4673 15.1411 5.70207C15.1149 5.95471 15.0577 6.19173 14.9204 6.41929C14.7841 6.64513 14.6005 6.80907 14.389 6.95602C14.1897 7.09446 13.935 7.2378 13.6356 7.40637L11.6739 8.51063C11.2274 8.76199 11.0719 8.8525 10.9681 8.94262C10.7298 9.14958 10.5932 9.37921 10.5291 9.66692C10.5017 9.78991 10.4987 9.94481 10.4987 10.4153L10.4987 12.2367C10.4987 12.8375 10.4988 13.3476 10.4369 13.7397C10.3712 14.1567 10.2186 14.5566 9.81855 14.8068C9.42765 15.0513 8.99704 15.0289 8.57857 14.9295C8.17553 14.8338 7.67888 14.6396 7.08294 14.4066L7.02502 14.384C6.74587 14.2749 6.50144 14.1793 6.30793 14.0794C6.09996 13.972 5.90683 13.8384 5.75907 13.6305C5.60964 13.4202 5.54973 13.1947 5.52302 12.9642C5.49866 12.754 5.49868 12.5018 5.4987 12.2204L5.4987 10.4153C5.4987 9.94481 5.49573 9.78991 5.46831 9.66692C5.40416 9.37921 5.26765 9.14958 5.02926 8.94262C4.92546 8.8525 4.76998 8.76199 4.32346 8.51063L2.36184 7.40637C2.06236 7.2378 1.80772 7.09446 1.60842 6.95602C1.39686 6.80907 1.2133 6.64513 1.07701 6.41929C0.939688 6.19173 0.882502 5.95471 0.85633 5.70207C0.832007 5.4673 0.83202 5.18575 0.832034 4.86008L0.832035 4.37644C0.832035 4.36505 0.832034 4.35369 0.832033 4.34238C0.832002 3.92931 0.831975 3.56723 0.873702 3.27603C0.919127 2.95904 1.02254 2.65436 1.28282 2.41016C1.53858 2.1702 1.85 2.07892 2.17219 2.03828C2.47598 1.99996 2.85607 1.99998 3.3007 2ZM2.29734 3.03042C2.0749 3.05848 2.00416 3.10461 1.96704 3.13944C1.93443 3.17004 1.89139 3.2239 1.86359 3.41789C1.83324 3.6297 1.83203 3.91912 1.83203 4.37644V4.83632C1.83203 5.19246 1.83265 5.42185 1.85101 5.59903C1.8681 5.76404 1.89745 5.84338 1.93319 5.90261C1.96997 5.96355 2.03103 6.032 2.17892 6.13473C2.33474 6.24296 2.5476 6.36339 2.87199 6.54599L4.814 7.63922C4.83219 7.64945 4.8501 7.65953 4.86774 7.66946C5.24021 7.879 5.49389 8.02172 5.68483 8.18749C6.07907 8.52975 6.33201 8.94548 6.44434 9.4493C6.49894 9.69417 6.49885 9.96874 6.49871 10.3563C6.49871 10.3757 6.4987 10.3953 6.4987 10.4153V12.1949C6.4987 12.5097 6.49948 12.7033 6.51637 12.8491C6.53165 12.9809 6.55571 13.0252 6.57423 13.0512C6.59442 13.0797 6.63441 13.1225 6.76672 13.1909C6.90833 13.264 7.10342 13.3409 7.41152 13.4614C8.05219 13.7118 8.48312 13.879 8.80965 13.9566C9.12871 14.0323 9.23386 13.993 9.28826 13.959C9.33354 13.9307 9.40356 13.8731 9.44914 13.584C9.49721 13.2791 9.4987 12.849 9.4987 12.1949V10.4153C9.4987 10.3953 9.49869 10.3757 9.49869 10.3563C9.49855 9.96875 9.49846 9.69417 9.55306 9.4493C9.66539 8.94547 9.91833 8.52975 10.3126 8.18749C10.5035 8.02172 10.7572 7.87901 11.1296 7.66947C11.1473 7.65954 11.1652 7.64946 11.1834 7.63922L13.1254 6.54599C13.4498 6.36339 13.6627 6.24296 13.8185 6.13473C13.9664 6.032 14.0274 5.96355 14.0642 5.90261C14.1 5.84338 14.1293 5.76404 14.1464 5.59903C14.1648 5.42185 14.1654 5.19246 14.1654 4.83632V4.37644C14.1654 3.91912 14.1642 3.6297 14.1338 3.41789C14.106 3.2239 14.063 3.17004 14.0304 3.13944C13.9932 3.10461 13.9225 3.05848 13.7001 3.03042C13.4663 3.00094 13.1501 3 12.6654 3H3.33203C2.84735 3 2.53106 3.00094 2.29734 3.03042Z" fill="#0F172A"/>
</svg>
